<?xml version="1.0" encoding="UTF-8"?><svg id="Layer_1" xmlns="http://www.w3.org/2000/svg" viewBox="0 0 320 320"><defs><style>.cls-1,.cls-2{fill:#fff;}.cls-3{fill:#ffc92a;}.cls-4{fill:#ff455a;}.cls-2{fill-rule:evenodd;}</style></defs><g id="docarray-dark"><g id="_编组"><g id="_编组-57"><path id="_形状" class="cls-1" d="M124,40.99998c0,5.52285,4.47716,10,10,10h26c59.00108,0,107.05321,46.87801,108.94232,105.41995l.04308,1.77753,.0146,1.80251c0,59.59705-47.82983,108.02284-107.19749,108.9854l-27.80251,.01074c-5.52347,.00214-10,4.48039-10,10.00386,0,5.52284,4.47716,10,10,10h26c70.53228,0,127.84355-56.60594,128.98272-126.86674l.01728-2.13326c0-70.53228-56.60594-127.84355-126.86675-128.98272l-28.13325-.01275c-5.52034-.0025-9.9975,4.47059-10,9.99094v.00453ZM49,30.99998c-9.83067,0-17.82068,7.88078-17.99701,17.66933l-.00299,.33067v230c0,5.42924,4.32668,9.84793,9.72009,9.99615l.27991,.00385h44c5.52284,0,10-4.47716,10-10s-4.47716-10-10-10H51V50.99998h34c5.52284,0,10-4.47715,10-10s-4.47716-10-10-10H49Z"/></g></g><path id="_路径" class="cls-4" d="M147.68831,95.99998l.17627,.0051c1.57481,.09124,2.82373,1.39722,2.82373,2.9949l.00069,49.855-.01791-.00377c-.39824-.08511-.7899-.16728-1.17497-.24654l-1.13547-.22893c-.18594-.03668-.37025-.07263-.55292-.10785l-1.07622-.20251c-.17607-.03229-.35051-.06384-.5233-.09465l-1.01697-.1761h0l-.97748-.15849c-.15962-.02495-.3176-.04916-.47392-.07263l-.91823-.13208h0l-.87872-.11447c-1.71796-.21132-3.19891-.31697-4.44289-.31697l-.5995,.00372c-12.37377,.15398-23.95298,5.06996-32.59692,13.52138l-.47858,.47389-15.13673,.00101c-1.65681,0-2.99995-1.34314-2.99995-3v-59c0-1.65685,1.34315-3,3-3h59Z"/><path id="_路径-2" class="cls-2" d="M137.5,156.99998c6.00452,0,11.67941,1.41124,16.71112,3.92012l-2.25163,3.82259c-4.20609,7.13708-1.83003,16.33255,5.30705,20.53862,2.30762,1.35994,4.93727,2.07716,7.61578,2.07716l9.43849,.00006c.44576,2.3119,.67918,4.69942,.67918,7.14145,0,20.71068-16.78932,37.5-37.5,37.5s-37.5-16.78932-37.5-37.5,16.78932-37.5,37.5-37.5Z"/><path id="_路径-73" class="cls-3" d="M199.24509,119.02419l28.38857,50.89877c.41528,.74457,.63329,1.58296,.63329,2.43552,0,2.76143-2.23857,5-5,5h-58.38461c-.89284,0-1.76938-.23907-2.53859-.69238-2.37903-1.40204-3.17105-4.46718-1.76901-6.84621l29.99603-50.89877c.45068-.76476,1.09685-1.39574,1.8721-1.82812,2.41167-1.3451,5.45714-.48047,6.80223,1.9312Z"/></g></svg>