<?xml version="1.0" encoding="UTF-8"?>
<svg width="320px" height="320px" viewBox="0 0 320 320" version="1.1" xmlns="http://www.w3.org/2000/svg" xmlns:xlink="http://www.w3.org/1999/xlink">
    <title>docarray-colorful</title>
    <g id="docarray-colorful" stroke="none" stroke-width="1" fill="none" fill-rule="evenodd">
        <rect fill="#009191" x="0" y="0" width="320" height="320"></rect>
        <g id="编组" transform="translate(31.000000, 31.000000)" fill="#FFFFFF" fill-rule="nonzero">
            <g id="编组-57" transform="translate(129.000000, 129.000000) scale(-1, 1) translate(-129.000000, -129.000000) ">
                <path d="M165,10 C165,15.5228475 160.522847,20 155,20 L129,20 L129,20 C69.9989231,20 21.9467921,66.8780096 20.0576823,125.419953 L20.0146029,127.197486 L20,129 C20,188.597047 67.8298231,237.022841 127.197486,237.985397 L155.000001,237.996137 C160.523473,237.998271 165,242.476528 165,248 C165,253.522847 160.522847,258 155,258 L129,258 L129,258 C58.4677146,258 1.15645429,201.394063 0.0172823144,131.133251 L0,129 C0,58.4677146 56.6059375,1.15645429 126.866749,0.0172823144 L155.000001,0.00453208478 C160.520346,0.0020302176 164.997497,4.47512547 164.999999,9.99546997 C165,9.99697998 165,9.99848999 165,10 Z M240,0 C249.830669,0 257.820682,7.88078333 257.997024,17.6693348 L258,18 L258,248 C258,253.42924 253.673329,257.847932 248.279905,257.996158 L248,258 L204,258 C198.477153,258 194,253.522847 194,248 C194,242.477153 198.477153,238 204,238 L238,238 L238,238 L238,20 L204,20 C198.477153,20 194,15.5228475 194,10 C194,4.4771525 198.477153,1.01453063e-15 204,0 L240,0 L240,0 Z" id="形状"></path>
            </g>
        </g>
        <path d="M147.688312,96 L147.864584,96.0050927 C149.439392,96.0963391 150.688312,97.4023191 150.688312,99 L150.689,148.855 L150.671078,148.851234 C150.27284,148.766119 149.881185,148.68394 149.496113,148.604696 L148.360647,148.375768 C148.174694,148.339081 147.990387,148.303128 147.807726,148.267908 L146.731507,148.065395 C146.555429,148.03311 146.380996,148.001559 146.208209,147.970742 L145.191238,147.794644 L145.191238,147.794644 L144.213766,147.636155 C144.054145,147.611208 143.896171,147.586994 143.739842,147.563515 L142.821617,147.431441 L142.821617,147.431441 L141.94289,147.316977 C140.224936,147.105659 138.743973,147 137.5,147 L136.900502,147.003729 C124.526724,147.157701 112.947515,152.07369 104.303583,160.525108 L103.825,160.999 L88.688262,161 C87.0314574,161 85.6883117,159.656854 85.6883117,158 L85.6883117,99 C85.6883117,97.3431458 87.0314574,96 88.6883117,96 L147.688312,96 Z" id="路径" fill="#FF455A" fill-rule="nonzero"></path>
        <path d="M137.5,157 C143.504513,157 149.179413,158.411237 154.211113,160.920123 L151.95949,164.742705 C147.753408,171.879792 150.129458,181.075249 157.266546,185.281331 C159.574151,186.641266 162.203812,187.35849 164.882331,187.35849 L174.320821,187.358558 C174.766575,189.670456 175,192.057968 175,194.5 C175,215.210678 158.210678,232 137.5,232 C116.789322,232 100,215.210678 100,194.5 C100,173.789322 116.789322,157 137.5,157 Z" id="路径" fill="#FFFFFF"></path>
        <path d="M199.245089,119.024211 L227.633659,169.92297 C228.048941,170.667543 228.266939,171.505936 228.266939,172.35849 C228.266939,175.119914 226.028363,177.35849 223.266939,177.35849 L164.882331,177.35849 C163.989491,177.35849 163.112938,177.119415 162.343736,176.666104 C159.964707,175.264076 159.17269,172.198924 160.574718,169.819895 L190.570756,118.921136 C191.021445,118.156383 191.667604,117.525401 192.44285,117.093011 C194.854522,115.74791 197.899989,116.612538 199.245089,119.024211 Z" id="路径-73" fill="#FFC92A" fill-rule="nonzero"></path>
    </g>
</svg>